<svg width="385" height="515" viewBox="0 0 385 515" fill="none" xmlns="http://www.w3.org/2000/svg">
<circle cx="192.1" cy="190" r="75" fill="#B71411"/>
<path d="M192.1 7.5C294.086 7.5 376.599 88.6697 376.6 188.6C376.6 246.051 347.52 310.119 311.385 367.293C275.399 424.232 233.133 473.232 208.186 500.316C199.356 509.894 184.744 509.894 175.914 500.316C150.967 473.232 108.701 424.231 72.7148 367.293C37.7974 312.045 9.46889 250.36 7.59961 194.429V188.6C7.59983 88.6698 90.1132 7.50021 192.1 7.5ZM192.1 120.5C152.658 120.5 120.6 152.558 120.6 192C120.6 231.442 152.658 263.5 192.1 263.5C231.542 263.5 263.6 231.442 263.6 192C263.6 152.558 231.542 120.5 192.1 120.5Z" fill="#EB4B39" stroke="#B71411" stroke-width="15"/>
</svg>
