<svg width="640" height="640" viewBox="0 0 640 640" fill="none" xmlns="http://www.w3.org/2000/svg">
<path d="M510.362 161.612C510.362 143.934 496.008 129.58 478.33 129.58L252.056 129.58C234.378 129.58 220.024 143.934 220.024 161.612C220.024 179.289 234.378 193.644 252.056 193.644L401.114 193.644L138.989 455.768C126.474 468.284 126.474 488.507 138.989 501.023C151.505 513.539 171.728 513.539 184.244 501.023L446.369 238.899L446.369 387.957C446.369 405.634 460.723 419.989 478.401 419.989C496.078 419.989 510.433 405.634 510.433 387.957L510.433 161.682L510.362 161.612Z" fill="currentColor"/>
</svg>
