<svg width="640" height="640" viewBox="0 0 640 640" fill="none" xmlns="http://www.w3.org/2000/svg">
<path d="M478.401 510.349C496.079 510.349 510.433 495.995 510.433 478.318L510.433 252.043C510.433 234.366 496.079 220.011 478.401 220.011C460.723 220.011 446.369 234.366 446.369 252.043L446.369 401.102L184.244 138.977C171.729 126.461 151.505 126.461 138.99 138.977C126.474 151.493 126.474 171.716 138.99 184.232L401.114 446.356L252.056 446.356C234.378 446.356 220.024 460.711 220.024 478.388C220.024 496.066 234.378 510.42 252.056 510.42L478.33 510.42L478.401 510.349Z" fill="currentColor"/>
</svg>
