<svg width="640" height="640" viewBox="0 0 640 640" fill="none" xmlns="http://www.w3.org/2000/svg">
<path d="M556.504 164.413C554.604 193.425 529.544 215.404 500.531 213.504C471.519 211.604 449.54 186.544 451.44 157.532C453.34 128.519 478.4 106.54 507.413 108.441C536.425 110.341 558.404 135.4 556.504 164.413Z" fill="currentColor"/>
<rect x="474.325" y="141" width="70" height="382.685" rx="35" transform="rotate(32.4482 474.325 141)" fill="currentColor"/>
<path d="M480.5 391L531.911 510.132C541.882 533.237 524.941 559 499.776 559H319.5H139.111C113.976 559 97.0344 533.293 106.948 510.195L287.258 90.1154C299.4 61.828 339.516 61.8639 351.608 90.1728L382.5 162.5" stroke="currentColor" stroke-width="70" stroke-linecap="round"/>
</svg>
