<svg width="230" height="100" viewBox="0 0 230 100" fill="none" xmlns="http://www.w3.org/2000/svg">
<path d="M50 0C53.4529 0 56.8242 0.34916 60.0801 1.01562C59.2467 1.06732 58.4579 1.25467 57.7139 1.5791C56.8428 1.96509 56.0764 2.49545 55.416 3.1709C54.7698 3.83254 54.2573 4.61187 53.8779 5.50781C53.5126 6.40392 53.3291 7.36263 53.3291 8.38281C53.3291 9.4029 53.5126 10.3608 53.8779 11.2568C54.2573 12.1529 54.7698 12.9388 55.416 13.6143C56.0764 14.276 56.8427 14.8005 57.7139 15.1865C58.5989 15.5724 59.5472 15.7656 60.5586 15.7656C61.3735 15.7656 62.1751 15.6138 62.9619 15.3105C63.7627 14.9935 64.5282 14.5515 65.2588 13.9863L64.2891 12.3115C63.6849 12.7802 63.0594 13.153 62.4131 13.4287C61.7669 13.7043 61.1486 13.8418 60.5586 13.8418C59.814 13.8418 59.1189 13.6967 58.4727 13.4072C57.8263 13.1177 57.2639 12.7248 56.7861 12.2285C56.3086 11.7324 55.9294 11.1537 55.6484 10.4922C55.3675 9.83052 55.2266 9.12718 55.2266 8.38281C55.2266 7.63835 55.3674 6.93518 55.6484 6.27344C55.9295 5.6117 56.3084 5.03244 56.7861 4.53613C57.2639 4.03985 57.8263 3.64693 58.4727 3.35742C59.1188 3.06805 59.8141 2.92287 60.5586 2.92285C61.1768 2.92285 61.7884 3.05447 62.3926 3.31641C63.0107 3.56455 63.615 3.91621 64.2051 4.37109L65.5332 3.00586C65.0806 2.62633 64.6124 2.29989 64.1309 2.02441C65.7026 2.48663 67.2409 3.02741 68.7441 3.63574C68.2703 4.18953 67.8802 4.8132 67.5752 5.50781C67.1958 6.40392 67.0059 7.36263 67.0059 8.38281C67.0059 9.40285 67.1959 10.3608 67.5752 11.2568C67.9686 12.1528 68.5024 12.9388 69.1768 13.6143C69.8652 14.276 70.6668 14.8005 71.5801 15.1865C72.4932 15.5724 73.4767 15.7656 74.5303 15.7656C75.57 15.7656 76.5467 15.5725 77.46 15.1865C78.3733 14.8005 79.1674 14.276 79.8418 13.6143C80.5302 12.9388 81.0714 12.1529 81.4648 11.2568C81.4771 11.2289 81.4871 11.2 81.499 11.1719C82.4793 11.9681 83.4299 12.7991 84.3467 13.666V15.6201H86.3027C94.792 24.5811 100 36.682 100 50C100 67.2934 91.2199 82.5353 77.875 91.5137H77.0811V92.0361C75.4698 93.0763 73.7939 94.0241 72.0625 94.877L69.8887 91.6172L74.7158 84.3799H72.5449C72.3763 84.6142 72.2002 84.8689 72.0176 85.1445C71.8349 85.4202 71.6032 85.7719 71.3223 86.1992C71.0413 86.6128 70.69 87.123 70.2686 87.7295C69.8611 88.336 69.3551 89.0874 68.751 89.9834L64.9785 84.3799H62.7656L67.6973 91.6172L63.1572 98.25C58.9649 99.3905 54.5536 100 50 100C22.3858 100 0 77.6142 0 50C0 22.3858 22.3858 0 50 0ZM154.438 84.2354C155.478 84.2354 156.455 84.4275 157.368 84.8135C158.281 85.1995 159.076 85.7307 159.75 86.4062C160.438 87.068 160.98 87.8471 161.373 88.7432C161.766 89.6391 161.963 90.5972 161.963 91.6172C161.963 92.6374 161.766 93.5961 161.373 94.4922C160.98 95.3882 160.438 96.1741 159.75 96.8496C159.076 97.5113 158.281 98.0349 157.368 98.4209C156.455 98.8069 155.478 99 154.438 99C153.385 99 152.401 98.8068 151.488 98.4209C150.575 98.0349 149.773 97.5114 149.085 96.8496C148.411 96.1741 147.877 95.3882 147.483 94.4922C147.104 93.5961 146.914 92.6374 146.914 91.6172C146.914 90.5972 147.104 89.6392 147.483 88.7432C147.877 87.8471 148.411 87.068 149.085 86.4062C149.773 85.7307 150.575 85.1995 151.488 84.8135C152.401 84.4276 153.385 84.2354 154.438 84.2354ZM209.529 84.2354C210.372 84.2354 211.216 84.4073 212.059 84.752C212.916 85.0966 213.73 85.5933 214.503 86.2412L213.176 87.6055C212.586 87.1505 211.981 86.7989 211.362 86.5508C210.758 86.289 210.147 86.1582 209.529 86.1582C208.785 86.1582 208.089 86.3033 207.442 86.5928C206.796 86.8823 206.234 87.2753 205.757 87.7715C205.279 88.2677 204.899 88.8462 204.618 89.5078C204.337 90.1695 204.196 90.8728 204.196 91.6172C204.196 92.3616 204.337 93.0649 204.618 93.7266C204.899 94.3883 205.279 94.9676 205.757 95.4639C206.234 95.96 206.796 96.3531 207.442 96.6426C208.089 96.9321 208.785 97.0771 209.529 97.0771C210.119 97.0771 210.738 96.9388 211.384 96.6631C212.03 96.3874 212.656 96.0156 213.26 95.5469L214.229 97.2217C213.499 97.7869 212.733 98.2278 211.932 98.5449C211.145 98.8482 210.344 99 209.529 99C208.518 99 207.569 98.8069 206.684 98.4209C205.813 98.0349 205.047 97.5112 204.387 96.8496C203.74 96.1741 203.227 95.3882 202.848 94.4922C202.482 93.5961 202.3 92.6374 202.3 91.6172C202.3 90.5972 202.482 89.6391 202.848 88.7432C203.227 87.8471 203.74 87.068 204.387 86.4062C205.047 85.7308 205.812 85.1995 206.684 84.8135C207.569 84.4275 208.518 84.2354 209.529 84.2354ZM48.4434 85.7236C48.2185 86.3027 47.9517 86.9578 47.6426 87.6885C47.3475 88.4192 47.0306 89.2049 46.6934 90.0459C46.3562 90.8867 46.0198 91.7209 45.6826 92.5479L43.1113 98.8555H45.0918C45.1902 98.6073 45.3032 98.3451 45.4297 98.0693C45.528 97.835 45.6402 97.5726 45.7666 97.2832C45.8929 96.9802 46.0192 96.6703 46.1455 96.3535H53.0801C53.2065 96.6842 53.3326 97.0015 53.459 97.3047C53.5714 97.5666 53.6771 97.8424 53.7754 98.1318C53.8877 98.4212 53.986 98.6625 54.0703 98.8555H56.0938L50.1719 84.3799H48.9912C48.8648 84.6969 48.6821 85.1448 48.4434 85.7236ZM58.6191 98.8555H60.5586V84.3799H58.6191V98.8555ZM65.5264 98.0693C65.3297 98.3451 65.1471 98.6073 64.9785 98.8555H62.7441L63.1572 98.25C64.1126 97.9901 65.0566 97.7029 65.9883 97.3887C65.8145 97.6444 65.6608 97.8715 65.5264 98.0693ZM74.7158 98.8555H72.5449L70.373 95.6709C70.942 95.4167 71.505 95.1516 72.0625 94.877L74.7158 98.8555ZM97.6514 86.3027H90.7598V90.8525H95.8604V92.7959H90.7598V96.9316H97.6514V98.8555H88.9053V84.3799H97.6514V86.3027ZM108.125 94.7197V84.3799H110.043V98.8555H108.567L101.844 88.5986V98.8555H99.9473V84.3799H101.38L108.125 94.7197ZM129.047 84.4004C129.384 84.4142 129.757 84.4622 130.164 84.5449C130.571 84.6276 130.979 84.7584 131.386 84.9375C131.807 85.1029 132.187 85.3517 132.524 85.6826C132.876 85.9996 133.156 86.413 133.367 86.9229C133.592 87.4192 133.704 88.033 133.704 88.7637C133.704 89.5632 133.592 90.2386 133.367 90.79C133.156 91.3277 132.882 91.7763 132.545 92.1348C132.208 92.493 131.829 92.769 131.407 92.9619C131 93.1411 130.599 93.2785 130.206 93.375C129.813 93.4577 129.454 93.5057 129.131 93.5195C128.822 93.5333 128.59 93.541 128.436 93.541H126.665V98.8555H124.789V84.3799H128.267C128.449 84.3799 128.71 84.3866 129.047 84.4004ZM140.021 84.4004C140.345 84.4142 140.696 84.4622 141.075 84.5449C141.469 84.6276 141.862 84.7583 142.256 84.9375C142.649 85.1029 143.007 85.3518 143.33 85.6826C143.667 85.9996 143.934 86.413 144.131 86.9229C144.342 87.4192 144.447 88.033 144.447 88.7637C144.447 89.4806 144.363 90.1011 144.194 90.625C144.026 91.1349 143.801 91.5694 143.521 91.9277C143.254 92.2723 142.951 92.5548 142.614 92.7754C142.277 92.9822 141.932 93.1407 141.581 93.251L145.354 98.8555H143.119L139.579 93.541H137.787V98.8555H135.996V84.3799H139.284C139.453 84.3799 139.699 84.3866 140.021 84.4004ZM166.772 88.9287C167.025 89.5352 167.278 90.156 167.531 90.79C167.784 91.4242 168.031 92.038 168.27 92.6309C168.508 93.2098 168.726 93.7546 168.923 94.2646C169.133 94.7607 169.309 95.1741 169.449 95.5049L173.896 84.4209H175.941L170.019 98.8555H168.838C168.711 98.5522 168.529 98.1179 168.29 97.5527C168.065 96.9737 167.798 96.3186 167.489 95.5879C167.194 94.8435 166.878 94.0508 166.541 93.21C166.204 92.3691 165.866 91.535 165.529 90.708C164.742 88.7642 163.885 86.6545 162.958 84.3799H164.939C165.586 85.9788 166.196 87.4952 166.772 88.9287ZM186.986 86.3027H180.095V90.8525H185.195V92.7959H180.095V96.9316H186.986V98.8555H178.24V84.3799H186.986V86.3027ZM197.46 94.7197V84.3799H199.378V98.8555H197.902L191.179 88.5986V98.8555H189.282V84.3799H190.715L197.46 94.7197ZM225.382 86.3027H218.49V90.8525H223.59V92.7959H218.49V96.9316H225.382V98.8555H216.635V84.3799H225.382V86.3027ZM70.373 95.6709C68.9452 96.3088 67.4832 96.8845 65.9883 97.3887C66.0688 97.2702 66.1542 97.1456 66.2432 97.0146C66.5242 96.5873 66.868 96.0771 67.2754 95.4844C67.6829 94.8916 68.1749 94.1605 68.751 93.292L70.373 95.6709ZM154.438 86.1582C153.68 86.1582 152.963 86.3033 152.289 86.5928C151.615 86.8823 151.024 87.2752 150.519 87.7715C150.013 88.2677 149.612 88.8463 149.317 89.5078C149.022 90.1695 148.874 90.8728 148.874 91.6172C148.874 92.3616 149.022 93.0648 149.317 93.7266C149.612 94.3883 150.013 94.9676 150.519 95.4639C151.024 95.9601 151.615 96.3531 152.289 96.6426C152.963 96.932 153.68 97.0771 154.438 97.0771C155.197 97.0771 155.914 96.9321 156.589 96.6426C157.263 96.3531 157.846 95.9601 158.338 95.4639C158.844 94.9676 159.244 94.3883 159.539 93.7266C159.834 93.0649 159.981 92.3616 159.981 91.6172C159.981 90.8728 159.834 90.1695 159.539 89.5078C159.244 88.8463 158.844 88.2677 158.338 87.7715C157.846 87.2753 157.263 86.8823 156.589 86.5928C155.914 86.3033 155.197 86.1582 154.438 86.1582ZM49.5811 87.874C49.5811 87.9016 49.6163 88.0054 49.6865 88.1846C49.7568 88.35 49.8902 88.6671 50.0869 89.1357C50.2836 89.6045 50.5505 90.2596 50.8877 91.1006C51.239 91.9416 51.6893 93.0443 52.2373 94.4092H46.9043C47.087 93.9404 47.2695 93.4851 47.4521 93.0439C47.6348 92.6028 47.8248 92.1339 48.0215 91.6377C48.2322 91.1277 48.4639 90.5694 48.7168 89.9629C48.9697 89.3563 49.2579 88.6598 49.5811 87.874ZM85.9121 93.3545H77.0811V92.0361C77.3473 91.8642 77.6122 91.6905 77.875 91.5137H85.9121V93.3545ZM121.796 93.3545H112.965V91.5137H121.796V93.3545ZM126.665 91.6172H128.456C128.582 91.6172 128.822 91.6037 129.173 91.5762C129.538 91.5486 129.911 91.4448 130.29 91.2656C130.683 91.0864 131.028 90.804 131.323 90.418C131.632 90.032 131.786 89.4804 131.786 88.7637C131.786 88.1435 131.632 87.6678 131.323 87.3369C131.028 87.006 130.676 86.7649 130.269 86.6133C129.875 86.4617 129.482 86.3713 129.089 86.3438C128.709 86.3162 128.435 86.3027 128.267 86.3027H126.665V91.6172ZM137.787 91.6172H139.6C139.782 91.6172 140.043 91.597 140.38 91.5557C140.731 91.5005 141.068 91.3833 141.392 91.2041C141.729 91.0111 142.017 90.7286 142.256 90.3564C142.509 89.9704 142.635 89.4392 142.635 88.7637C142.635 88.1434 142.487 87.6678 142.192 87.3369C141.911 87.0062 141.581 86.7649 141.202 86.6133C140.823 86.4617 140.45 86.3713 140.085 86.3438C139.72 86.3162 139.453 86.3028 139.284 86.3027H137.787V91.6172ZM173.794 23.4033C176.26 23.4033 178.773 23.8455 181.334 24.7295C183.895 25.6135 186.456 26.8933 189.017 28.5684L185.317 33.6631C183.421 32.4534 181.5 31.5225 179.556 30.8711C177.611 30.2197 175.691 29.8945 173.794 29.8945C171.281 29.8945 168.886 30.3833 166.609 31.3604C164.381 32.3374 162.436 33.6629 160.776 35.3379C159.117 37.0129 157.789 38.9678 156.793 41.2012C155.845 43.4343 155.371 45.8071 155.371 48.3193C155.371 50.8318 155.845 53.2052 156.793 55.4385C157.789 57.6719 159.117 59.6267 160.776 61.3018C162.436 62.9767 164.381 64.3022 166.609 65.2793C168.886 66.2564 171.281 66.7451 173.794 66.7451C175.928 66.7451 177.943 66.3961 179.84 65.6982C181.737 64.9538 183.492 63.9535 185.104 62.6973V53.415C185.152 53.1824 185.175 52.7867 185.175 52.2285H172.727V45.7373H191.791L191.72 65.7686C189.206 68.1415 186.431 69.9794 183.396 71.2822C180.409 72.5849 177.208 73.2363 173.794 73.2363C170.332 73.2363 167.084 72.585 164.049 71.2822C161.014 69.9794 158.358 68.2109 156.082 65.9775C153.853 63.6977 152.075 61.0457 150.747 58.0215C149.467 54.9971 148.826 51.7625 148.826 48.3193C148.826 44.8764 149.467 41.6424 150.747 38.6182C152.075 35.5939 153.853 32.9648 156.082 30.7314C158.358 28.4517 161.014 26.6602 164.049 25.3574C167.084 24.0547 170.332 23.4033 173.794 23.4033ZM136.047 58.7891V23.8926H142.521V72.7471H137.541L114.85 38.1299V72.7471H108.447V23.8926H113.284L136.047 58.7891ZM229.11 30.3828H216.733V72.7471H210.332V30.3828H198.097V23.8926H229.11V30.3828ZM50 43.1523C46.2183 43.1524 43.1523 46.2183 43.1523 50C43.1523 53.7817 46.2183 56.8476 50 56.8477C53.7818 56.8477 56.8477 53.7818 56.8477 50C56.8477 46.2182 53.7818 43.1523 50 43.1523ZM43.1113 15.6201H51.8574V13.6973H44.9658V9.56152H50.0664V7.61719H44.9658V3.06836H51.8574V1.14453H43.1113V15.6201ZM86.2012 13.6973H93.0928V15.6201H86.3027C85.6688 14.9509 85.0165 14.2994 84.3467 13.666V1.14453H86.2012V13.6973ZM104.135 3.06836H97.2432V7.61719H102.344V9.56152H97.2432V13.6973H104.135V15.6201H95.3887V1.14453H104.135V3.06836ZM116.021 1.14453C117.103 1.14457 118.045 1.35879 118.846 1.78613C119.66 2.1997 120.335 2.75793 120.869 3.46094C121.417 4.15018 121.824 4.93616 122.091 5.81836C122.358 6.70068 122.491 7.59694 122.491 8.50684C122.491 9.40284 122.365 10.2782 122.112 11.1328C121.859 11.9874 121.473 12.7456 120.953 13.4072C120.447 14.0689 119.808 14.6069 119.035 15.0205C118.277 15.4203 117.391 15.6201 116.38 15.6201H112.08V1.14453H116.021ZM133.536 3.06836H126.644V7.61719H131.744V9.56152H126.644V13.6973H133.536V15.6201H124.789V1.14453H133.536V3.06836ZM145.569 1.16504C145.85 1.16504 146.16 1.1929 146.497 1.24805C146.834 1.3032 147.178 1.40701 147.529 1.55859C147.895 1.69645 148.218 1.90299 148.499 2.17871C148.794 2.45442 149.033 2.81278 149.216 3.25391C149.398 3.68128 149.489 4.21251 149.489 4.84668C149.489 5.49451 149.412 6.0461 149.258 6.50098C149.117 6.94186 148.921 7.32074 148.668 7.6377C148.935 7.78934 149.188 7.969 149.427 8.17578C149.665 8.38248 149.876 8.63061 150.059 8.91992C150.255 9.20943 150.41 9.54086 150.522 9.91309C150.635 10.2714 150.691 10.678 150.691 11.1328C150.691 11.8908 150.572 12.5319 150.333 13.0557C150.094 13.5657 149.785 13.9933 149.405 14.3379C149.04 14.6688 148.632 14.9243 148.183 15.1035C147.747 15.2689 147.325 15.3929 146.918 15.4756C146.525 15.5583 146.173 15.6063 145.864 15.6201H141.48V1.14453H144.916C145.071 1.14453 145.288 1.15126 145.569 1.16504ZM165.979 15.6201H163.956C163.872 15.4271 163.774 15.1859 163.661 14.8965C163.563 14.607 163.457 14.3313 163.345 14.0693C163.218 13.766 163.091 13.449 162.965 13.1182H156.031C155.905 13.4352 155.778 13.7455 155.651 14.0488C155.525 14.3383 155.413 14.6006 155.314 14.835C155.188 15.1104 155.076 15.3722 154.978 15.6201H152.996L155.567 9.31348C155.905 8.4863 156.242 7.65151 156.579 6.81055C156.916 5.96972 157.232 5.1837 157.527 4.45312C157.836 3.72271 158.103 3.06813 158.328 2.48926C158.567 1.91023 158.75 1.46162 158.876 1.14453H160.057L165.979 15.6201ZM175.574 3.06836H171.906V15.6201H170.01V3.06836H166.385V1.14453H175.574V3.06836ZM187.048 3.06836H183.381V15.6201H181.483V3.06836H177.858V1.14453H187.048V3.06836ZM198.08 3.06836H191.188V7.61719H196.288V9.56152H191.188V13.6973H198.08V15.6201H189.333V1.14453H198.08V3.06836ZM204.4 1.16504C204.723 1.17882 205.075 1.22786 205.454 1.31055C205.848 1.39326 206.241 1.5239 206.635 1.70312C207.028 1.86856 207.387 2.11641 207.71 2.44727C208.047 2.76435 208.314 3.1784 208.511 3.68848C208.721 4.18464 208.827 4.79796 208.827 5.52832C208.827 6.24502 208.743 6.86586 208.574 7.38965C208.406 7.89961 208.18 8.33399 207.899 8.69238C207.632 9.03704 207.33 9.32043 206.993 9.54102C206.656 9.74779 206.311 9.90632 205.96 10.0166L209.733 15.6201H207.499L203.958 10.3057H202.167V15.6201H200.375V1.14453H203.663C203.832 1.14453 204.077 1.15126 204.4 1.16504ZM213.974 15.6201H212.034V1.14453H213.974V15.6201ZM224.97 3.06836H218.077V7.61719H223.178V9.56152H218.077V13.6973H224.97V15.6201H216.223V1.14453H224.97V3.06836ZM70.6836 4.4668C73.9424 5.94949 77.0142 7.77109 79.8535 9.8877C79.7917 10.0926 79.7189 10.2947 79.6309 10.4922C79.3359 11.1537 78.9353 11.7323 78.4297 12.2285C77.938 12.7247 77.3549 13.1177 76.6807 13.4072C76.0062 13.6967 75.289 13.8418 74.5303 13.8418C73.7716 13.8418 73.0553 13.6967 72.3809 13.4072C71.7064 13.1177 71.1162 12.7248 70.6104 12.2285C70.1047 11.7323 69.7042 11.1537 69.4092 10.4922C69.1141 9.83052 68.9659 9.12718 68.9658 8.38281C68.9658 7.63836 69.1141 6.93517 69.4092 6.27344C69.7042 5.61169 70.1045 5.03244 70.6104 4.53613C70.6344 4.51257 70.6592 4.48989 70.6836 4.4668ZM113.977 13.6973H116.38C117.068 13.6972 117.673 13.5522 118.192 13.2627C118.712 12.9594 119.148 12.5664 119.499 12.084C119.85 11.6015 120.117 11.05 120.3 10.4297C120.482 9.79563 120.573 9.15467 120.573 8.50684C120.573 7.83131 120.475 7.16944 120.278 6.52148C120.096 5.87354 119.815 5.29427 119.436 4.78418C119.056 4.27414 118.578 3.86101 118.002 3.54395C117.44 3.22696 116.78 3.0684 116.021 3.06836H113.977V13.6973ZM143.356 13.6973H145.611C145.808 13.6835 146.033 13.6556 146.286 13.6143C146.553 13.5729 146.827 13.5037 147.108 13.4072C147.403 13.3107 147.67 13.1665 147.909 12.9736C148.162 12.7807 148.366 12.5394 148.521 12.25C148.689 11.9467 148.773 11.574 148.773 11.1328C148.773 10.6504 148.668 10.2708 148.457 9.99512C148.246 9.70574 147.993 9.49232 147.698 9.35449C147.403 9.20289 147.087 9.10681 146.75 9.06543C146.413 9.02407 146.117 9.00293 145.864 9.00293H143.356V13.6973ZM158.603 6.72852C158.35 7.33501 158.118 7.8933 157.907 8.40332C157.711 8.89963 157.521 9.36841 157.338 9.80957C157.155 10.2506 156.973 10.7053 156.79 11.1738H162.122C161.574 9.80918 161.125 8.70611 160.773 7.86523C160.436 7.02462 160.169 6.37003 159.973 5.90137C159.776 5.4331 159.643 5.11577 159.572 4.9502C159.502 4.77111 159.467 4.66731 159.467 4.63965C159.144 5.42547 158.855 6.12192 158.603 6.72852ZM74.5303 1C75.57 1 76.5467 1.19309 77.46 1.5791C78.3732 1.96509 79.1674 2.49544 79.8418 3.1709C80.5303 3.83261 81.0714 4.61176 81.4648 5.50781C81.8583 6.40392 82.0547 7.36263 82.0547 8.38281C82.0547 9.37097 81.8682 10.3001 81.499 11.1719C80.9591 10.7334 80.4117 10.3038 79.8535 9.8877C79.9987 9.4062 80.0732 8.90501 80.0732 8.38281C80.0732 7.6384 79.9259 6.93514 79.6309 6.27344C79.3358 5.61171 78.9355 5.03243 78.4297 4.53613C77.938 4.03992 77.3549 3.64692 76.6807 3.35742C76.0062 3.06791 75.289 2.92285 74.5303 2.92285C73.7717 2.92287 73.0552 3.06799 72.3809 3.35742C71.7385 3.63317 71.173 4.00345 70.6836 4.4668C70.0444 4.17599 69.3974 3.90009 68.7441 3.63574C68.8815 3.47518 69.0252 3.31962 69.1768 3.1709C69.8652 2.49541 70.6668 1.9651 71.5801 1.5791C72.4933 1.19318 73.4766 1.00002 74.5303 1ZM202.167 8.38281H203.979C204.162 8.38278 204.422 8.36163 204.759 8.32031C205.11 8.26517 205.447 8.14797 205.771 7.96875C206.108 7.77574 206.396 7.49331 206.635 7.12109C206.888 6.73508 207.014 6.20382 207.014 5.52832C207.014 4.90817 206.866 4.43235 206.571 4.10156C206.29 3.77087 205.96 3.52953 205.581 3.37793C205.202 3.22628 204.829 3.13695 204.464 3.10938C204.099 3.08181 203.832 3.06837 203.663 3.06836H202.167V8.38281ZM143.356 7.05957H145.274C145.485 7.05957 145.724 7.03843 145.991 6.99707C146.258 6.95569 146.511 6.85961 146.75 6.70801C146.989 6.54261 147.185 6.3148 147.34 6.02539C147.508 5.73594 147.593 5.34285 147.593 4.84668C147.593 4.39179 147.473 4.04014 147.234 3.79199C147.01 3.54384 146.743 3.37092 146.434 3.27441C146.139 3.1642 145.844 3.1027 145.549 3.08887C145.254 3.07508 145.042 3.06836 144.916 3.06836H143.356V7.05957ZM60.5586 1C61.4016 1 62.2449 1.17199 63.0879 1.5166C63.443 1.65938 63.7903 1.82958 64.1309 2.02441C62.8027 1.63384 61.4517 1.29638 60.0801 1.01562C60.238 1.00583 60.3975 1 60.5586 1Z" fill="currentColor"/>
</svg>
