<svg width="230" height="100" viewBox="0 0 230 100" fill="none" xmlns="http://www.w3.org/2000/svg">
<circle cx="50" cy="50" r="50" fill="#FFDD00"/>
<circle cx="50.0001" cy="50" r="6.84755" fill="black"/>
<path d="M113.285 23.8922L124.666 41.3405L136.047 58.7888V23.8922H142.52V48.3198V60.5336V72.7474H137.541L114.849 38.13V72.7474H108.448V23.8922H113.285Z" fill="white"/>
<path d="M172.727 45.7374H191.791L191.719 65.7681C189.206 68.1411 186.432 69.979 183.397 71.2818C180.409 72.5846 177.208 73.236 173.794 73.236C170.332 73.236 167.084 72.5846 164.049 71.2818C161.014 69.979 158.358 68.2109 156.082 65.9775C153.853 63.6976 152.075 61.0454 150.747 58.021C149.467 54.9967 148.826 51.7629 148.826 48.3198C148.826 44.8767 149.467 41.6429 150.747 38.6185C152.075 35.5942 153.853 32.9653 156.082 30.7319C158.358 28.452 161.014 26.6606 164.049 25.3578C167.084 24.055 170.332 23.4036 173.794 23.4036C176.26 23.4036 178.773 23.8456 181.334 24.7297C183.895 25.6137 186.456 26.8933 189.016 28.5683L185.318 33.6632C183.421 32.4535 181.5 31.5229 179.556 30.8715C177.611 30.2201 175.691 29.8944 173.794 29.8944C171.281 29.8944 168.886 30.3829 166.61 31.36C164.381 32.3371 162.437 33.6632 160.777 35.3383C159.117 37.0133 157.789 38.9675 156.793 41.2009C155.845 43.4343 155.371 45.8072 155.371 48.3198C155.371 50.8324 155.845 53.2053 156.793 55.4387C157.789 57.6721 159.117 59.6263 160.777 61.3013C162.437 62.9764 164.381 64.3024 166.61 65.2795C168.886 66.2566 171.281 66.7452 173.794 66.7452C175.928 66.7452 177.943 66.3962 179.84 65.6983C181.737 64.9538 183.492 63.9535 185.104 62.6972V54.4616C185.104 53.9963 185.104 53.6473 185.104 53.4147C185.152 53.1821 185.175 52.7866 185.175 52.2282H172.727V45.7374Z" fill="white"/>
<path d="M198.097 23.8922H229.111V30.3829H216.734V72.7474H210.332V30.3829H198.097V23.8922Z" fill="white"/>
<path d="M50.1714 84.3796L56.0939 98.8552H54.0705C53.9862 98.6622 53.8879 98.421 53.7755 98.1315C53.6771 97.842 53.5717 97.5662 53.4593 97.3043C53.3329 97.001 53.2064 96.6839 53.08 96.353H46.1458C46.0194 96.6701 45.8929 96.9803 45.7665 97.2836C45.64 97.5731 45.5276 97.8351 45.4292 98.0694C45.3028 98.3451 45.1904 98.6071 45.092 98.8552H43.1108L45.6822 92.548C46.0194 91.7208 46.3566 90.8868 46.6938 90.0458C47.031 89.2048 47.3472 88.419 47.6423 87.6883C47.9514 86.9577 48.2183 86.3028 48.4432 85.7238C48.682 85.1448 48.8647 84.6967 48.9911 84.3796H50.1714ZM52.2369 94.4092C51.6889 93.0443 51.2393 91.9414 50.888 91.1004C50.5508 90.2595 50.2838 89.6046 50.0871 89.1359C49.8904 88.6672 49.7569 88.3501 49.6867 88.1846C49.6164 88.0054 49.5813 87.902 49.5813 87.8744C49.2581 88.6603 48.9701 89.3565 48.7172 89.9631C48.4642 90.5697 48.2324 91.128 48.0216 91.6381C47.8249 92.1344 47.6352 92.6031 47.4526 93.0443C47.2699 93.4855 47.0872 93.9404 46.9046 94.4092H52.2369Z" fill="white"/>
<path d="M60.5583 84.3796V98.8552H58.6193V84.3796H60.5583Z" fill="white"/>
<path d="M74.7155 84.3796L69.889 91.6174L74.7155 98.8552H72.5446L68.7509 93.2925C68.1748 94.161 67.683 94.8917 67.2755 95.4845C66.8681 96.0773 66.5238 96.5874 66.2428 97.0148C65.9618 97.4284 65.7229 97.7799 65.5262 98.0694C65.3295 98.3451 65.1468 98.6071 64.9782 98.8552H62.7441L67.6971 91.6174L62.7652 84.3796H64.9782L68.7509 89.9837C69.3551 89.0876 69.8609 88.3363 70.2684 87.7297C70.6899 87.1231 71.0412 86.613 71.3222 86.1994C71.6032 85.772 71.8351 85.4205 72.0177 85.1448C72.2004 84.869 72.376 84.614 72.5446 84.3796H74.7155Z" fill="white"/>
<path d="M77.0808 93.3545V91.514H85.9118V93.3545H77.0808Z" fill="white"/>
<path d="M95.8602 92.7962H90.7597V96.9321H97.6517V98.8552H88.905V84.3796H97.6517V86.3028H90.7597V90.8523H95.8602V92.7962Z" fill="white"/>
<path d="M101.38 84.3796L108.125 94.7194V84.3796H110.043V98.8552H108.567L101.844 88.5982V98.8552H99.947V84.3796H101.38Z" fill="white"/>
<path d="M112.965 93.3545V91.514H121.796V93.3545H112.965Z" fill="white"/>
<path d="M124.789 98.8552V84.3796H128.267C128.449 84.3796 128.709 84.3865 129.047 84.4003C129.384 84.4141 129.756 84.4623 130.164 84.5451C130.571 84.6278 130.979 84.7587 131.386 84.938C131.808 85.1034 132.187 85.3516 132.524 85.6824C132.875 85.9995 133.156 86.4131 133.367 86.9232C133.592 87.4195 133.704 88.033 133.704 88.7637C133.704 89.5633 133.592 90.2388 133.367 90.7903C133.156 91.3279 132.882 91.776 132.545 92.1344C132.208 92.4929 131.829 92.7686 131.407 92.9616C131 93.1408 130.599 93.2787 130.206 93.3752C129.812 93.4579 129.454 93.5062 129.131 93.52C128.822 93.5337 128.59 93.5406 128.435 93.5406H126.665V98.8552H124.789ZM126.665 91.6174H128.456C128.583 91.6174 128.822 91.6036 129.173 91.5761C129.538 91.5485 129.911 91.4451 130.29 91.2659C130.683 91.0867 131.028 90.804 131.323 90.418C131.632 90.032 131.786 89.4806 131.786 88.7637C131.786 88.1433 131.632 87.6677 131.323 87.3368C131.028 87.0059 130.676 86.7647 130.269 86.613C129.876 86.4614 129.482 86.3717 129.089 86.3442C128.709 86.3166 128.435 86.3028 128.267 86.3028H126.665V91.6174Z" fill="white"/>
<path d="M143.12 98.8552L139.579 93.5406H137.787V98.8552H135.996V84.3796H139.284C139.452 84.3796 139.698 84.3865 140.021 84.4003C140.345 84.4141 140.696 84.4623 141.075 84.5451C141.469 84.6278 141.862 84.7587 142.256 84.938C142.649 85.1034 143.007 85.3516 143.33 85.6824C143.668 85.9995 143.935 86.4131 144.131 86.9232C144.342 87.4195 144.447 88.033 144.447 88.7637C144.447 89.4806 144.363 90.1009 144.195 90.6248C144.026 91.1349 143.801 91.5692 143.52 91.9276C143.253 92.2723 142.951 92.5549 142.614 92.7755C142.277 92.9823 141.932 93.1408 141.581 93.2511L145.354 98.8552H143.12ZM137.787 91.6174H139.6C139.783 91.6174 140.042 91.5968 140.38 91.5554C140.731 91.5003 141.068 91.3831 141.391 91.2038C141.729 91.0108 142.017 90.7282 142.256 90.356C142.508 89.97 142.635 89.4392 142.635 88.7637C142.635 88.1433 142.487 87.6677 142.192 87.3368C141.911 87.0059 141.581 86.7647 141.202 86.613C140.822 86.4614 140.45 86.3717 140.085 86.3442C139.719 86.3166 139.452 86.3028 139.284 86.3028H137.787V91.6174Z" fill="white"/>
<path d="M146.914 91.6174C146.914 90.5972 147.104 89.6391 147.483 88.743C147.877 87.8469 148.411 87.0679 149.085 86.4062C149.774 85.7307 150.575 85.1999 151.488 84.8139C152.401 84.4279 153.385 84.2349 154.439 84.2349C155.478 84.2349 156.455 84.4279 157.368 84.8139C158.282 85.1999 159.075 85.7307 159.75 86.4062C160.438 87.0679 160.979 87.8469 161.373 88.743C161.766 89.6391 161.963 90.5972 161.963 91.6174C161.963 92.6376 161.766 93.5958 161.373 94.4919C160.979 95.388 160.438 96.1738 159.75 96.8493C159.075 97.5111 158.282 98.035 157.368 98.421C156.455 98.807 155.478 99 154.439 99C153.385 99 152.401 98.807 151.488 98.421C150.575 98.035 149.774 97.5111 149.085 96.8493C148.411 96.1738 147.877 95.388 147.483 94.4919C147.104 93.5958 146.914 92.6376 146.914 91.6174ZM148.874 91.6174C148.874 92.3619 149.022 93.065 149.317 93.7267C149.612 94.3885 150.013 94.9675 150.518 95.4638C151.024 95.9601 151.614 96.353 152.289 96.6425C152.963 96.9321 153.68 97.0768 154.439 97.0768C155.197 97.0768 155.914 96.9321 156.588 96.6425C157.263 96.353 157.846 95.9601 158.338 95.4638C158.844 94.9675 159.244 94.3885 159.539 93.7267C159.834 93.065 159.982 92.3619 159.982 91.6174C159.982 90.873 159.834 90.1699 159.539 89.5081C159.244 88.8464 158.844 88.2674 158.338 87.771C157.846 87.2747 157.263 86.8818 156.588 86.5923C155.914 86.3028 155.197 86.1581 154.439 86.1581C153.68 86.1581 152.963 86.3028 152.289 86.5923C151.614 86.8818 151.024 87.2747 150.518 87.771C150.013 88.2674 149.612 88.8464 149.317 89.5081C149.022 90.1699 148.874 90.873 148.874 91.6174Z" fill="white"/>
<path d="M168.838 98.8552C168.712 98.5519 168.529 98.1177 168.29 97.5524C168.065 96.9734 167.798 96.3186 167.489 95.5879C167.194 94.8434 166.878 94.0507 166.541 93.2098C166.204 92.3688 165.866 91.5347 165.529 90.7075C164.742 88.7637 163.885 86.6544 162.958 84.3796H164.939C165.585 85.9788 166.197 87.4953 166.773 88.9291C167.026 89.5357 167.279 90.1561 167.531 90.7903C167.784 91.4244 168.03 92.0379 168.269 92.6307C168.508 93.2098 168.726 93.7543 168.923 94.2644C169.133 94.7607 169.309 95.1743 169.449 95.5052L173.897 84.421H175.941L170.018 98.8552H168.838Z" fill="white"/>
<path d="M185.195 92.7962H180.095V96.9321H186.987V98.8552H178.24V84.3796H186.987V86.3028H180.095V90.8523H185.195V92.7962Z" fill="white"/>
<path d="M190.715 84.3796L197.46 94.7194V84.3796H199.378V98.8552H197.902L191.179 88.5982V98.8552H189.282V84.3796H190.715Z" fill="white"/>
<path d="M214.229 97.2216C213.498 97.7868 212.733 98.228 211.932 98.5451C211.145 98.8484 210.344 99 209.529 99C208.517 99 207.569 98.807 206.684 98.421C205.813 98.035 205.047 97.5111 204.386 96.8493C203.74 96.1738 203.227 95.388 202.848 94.4919C202.483 93.5958 202.3 92.6376 202.3 91.6174C202.3 90.5972 202.483 89.6391 202.848 88.743C203.227 87.8469 203.74 87.0679 204.386 86.4062C205.047 85.7307 205.813 85.1999 206.684 84.8139C207.569 84.4279 208.517 84.2349 209.529 84.2349C210.372 84.2349 211.215 84.4072 212.058 84.7518C212.915 85.0965 213.73 85.5928 214.503 86.2408L213.175 87.6056C212.585 87.1507 211.981 86.7991 211.363 86.551C210.759 86.289 210.147 86.1581 209.529 86.1581C208.784 86.1581 208.089 86.3028 207.443 86.5923C206.796 86.8818 206.234 87.2747 205.756 87.771C205.279 88.2674 204.899 88.8464 204.618 89.5081C204.337 90.1699 204.197 90.873 204.197 91.6174C204.197 92.3619 204.337 93.065 204.618 93.7267C204.899 94.3885 205.279 94.9675 205.756 95.4638C206.234 95.9601 206.796 96.353 207.443 96.6425C208.089 96.9321 208.784 97.0768 209.529 97.0768C210.119 97.0768 210.737 96.9389 211.384 96.6632C212.03 96.3875 212.655 96.0153 213.26 95.5465L214.229 97.2216Z" fill="white"/>
<path d="M223.59 92.7962H218.49V96.9321H225.382V98.8552H216.635V84.3796H225.382V86.3028H218.49V90.8523H223.59V92.7962Z" fill="white"/>
<path d="M50.066 9.5613H44.9656V13.6972H51.8575V15.6204H43.1108V1.14476H51.8575V3.06795H44.9656V7.61743H50.066V9.5613Z" fill="white"/>
<path d="M65.2588 13.9867C64.5282 14.5519 63.7624 14.9931 62.9615 15.3102C62.1746 15.6135 61.3737 15.7651 60.5588 15.7651C59.5471 15.7651 58.5987 15.5721 57.7135 15.1861C56.8423 14.8001 56.0765 14.2762 55.4161 13.6145C54.7698 12.9389 54.2569 12.1531 53.8776 11.257C53.5122 10.3609 53.3296 9.40276 53.3296 8.38257C53.3296 7.36238 53.5122 6.40423 53.8776 5.50812C54.2569 4.61201 54.7698 3.83309 55.4161 3.17134C56.0765 2.49581 56.8423 1.96504 57.7135 1.57903C58.5987 1.19301 59.5471 1 60.5588 1C61.4018 1 62.2449 1.17233 63.0879 1.51699C63.945 1.86164 64.76 2.35795 65.5328 3.00591L64.205 4.37075C63.6148 3.9158 63.0107 3.56425 62.3924 3.3161C61.7882 3.05416 61.177 2.92319 60.5588 2.92319C59.8141 2.92319 59.1186 3.06795 58.4722 3.35746C57.8259 3.64697 57.2638 4.03988 56.7861 4.53619C56.3084 5.0325 55.929 5.61152 55.648 6.27326C55.367 6.93501 55.2265 7.63811 55.2265 8.38257C55.2265 9.12703 55.367 9.83013 55.648 10.4919C55.929 11.1536 56.3084 11.7326 56.7861 12.229C57.2638 12.7253 57.8259 13.1182 58.4722 13.4077C59.1186 13.6972 59.8141 13.842 60.5588 13.842C61.1489 13.842 61.7671 13.7041 62.4135 13.4284C63.0598 13.1526 63.6851 12.7804 64.2893 12.3117L65.2588 13.9867Z" fill="white"/>
<path d="M67.0062 8.38257C67.0062 7.36238 67.1958 6.40423 67.5752 5.50812C67.9686 4.61201 68.5026 3.83309 69.177 3.17134C69.8655 2.49581 70.6664 1.96504 71.5797 1.57903C72.493 1.19301 73.4766 1 74.5304 1C75.5702 1 76.5467 1.19301 77.46 1.57903C78.3733 1.96504 79.1672 2.49581 79.8417 3.17134C80.5302 3.83309 81.0711 4.61201 81.4645 5.50812C81.858 6.40423 82.0547 7.36238 82.0547 8.38257C82.0547 9.40276 81.858 10.3609 81.4645 11.257C81.0711 12.1531 80.5302 12.9389 79.8417 13.6145C79.1672 14.2762 78.3733 14.8001 77.46 15.1861C76.5467 15.5721 75.5702 15.7651 74.5304 15.7651C73.4766 15.7651 72.493 15.5721 71.5797 15.1861C70.6664 14.8001 69.8655 14.2762 69.177 13.6145C68.5026 12.9389 67.9686 12.1531 67.5752 11.257C67.1958 10.3609 67.0062 9.40276 67.0062 8.38257ZM68.9663 8.38257C68.9663 9.12703 69.1138 9.83013 69.4089 10.4919C69.7039 11.1536 70.1044 11.7326 70.6102 12.229C71.116 12.7253 71.7062 13.1182 72.3806 13.4077C73.0551 13.6972 73.7717 13.842 74.5304 13.842C75.2892 13.842 76.0058 13.6972 76.6802 13.4077C77.3546 13.1182 77.9378 12.7253 78.4295 12.229C78.9354 11.7326 79.3358 11.1536 79.6309 10.4919C79.926 9.83013 80.0735 9.12703 80.0735 8.38257C80.0735 7.63811 79.926 6.93501 79.6309 6.27326C79.3358 5.61152 78.9354 5.0325 78.4295 4.53619C77.9378 4.03988 77.3546 3.64697 76.6802 3.35746C76.0058 3.06795 75.2892 2.92319 74.5304 2.92319C73.7717 2.92319 73.0551 3.06795 72.3806 3.35746C71.7062 3.64697 71.116 4.03988 70.6102 4.53619C70.1044 5.0325 69.7039 5.61152 69.4089 6.27326C69.1138 6.93501 68.9663 7.63811 68.9663 8.38257Z" fill="white"/>
<path d="M93.0931 15.6204H84.3464V1.14476H86.2011V13.6972H93.0931V15.6204Z" fill="white"/>
<path d="M102.344 9.5613H97.2432V13.6972H104.135V15.6204H95.3884V1.14476H104.135V3.06795H97.2432V7.61743H102.344V9.5613Z" fill="white"/>
<path d="M116.021 1.14476C117.103 1.14476 118.045 1.35844 118.845 1.78582C119.66 2.19941 120.335 2.75775 120.869 3.46086C121.417 4.15017 121.824 4.93599 122.091 5.81832C122.358 6.70064 122.492 7.59675 122.492 8.50665C122.492 9.40276 122.365 10.2782 122.112 11.1329C121.859 11.9877 121.473 12.7459 120.953 13.4077C120.447 14.0694 119.808 14.6071 119.035 15.0207C118.276 15.4205 117.391 15.6204 116.38 15.6204H112.08V1.14476H116.021ZM113.977 3.06795V13.6972H116.38C117.068 13.6972 117.672 13.5524 118.192 13.2629C118.712 12.9596 119.148 12.5667 119.499 12.0842C119.85 11.6017 120.117 11.0502 120.3 10.4298C120.482 9.79567 120.574 9.1546 120.574 8.50665C120.574 7.83112 120.475 7.16937 120.279 6.52142C120.096 5.87346 119.815 5.29444 119.436 4.78434C119.056 4.27425 118.578 3.86066 118.002 3.54357C117.44 3.22649 116.78 3.06795 116.021 3.06795H113.977Z" fill="white"/>
<path d="M131.744 9.5613H126.644V13.6972H133.536V15.6204H124.789V1.14476H133.536V3.06795H126.644V7.61743H131.744V9.5613Z" fill="white"/>
<path d="M144.916 1.14476C145.071 1.14476 145.288 1.15165 145.569 1.16543C145.85 1.16543 146.16 1.19301 146.497 1.24815C146.834 1.3033 147.178 1.4067 147.53 1.55835C147.895 1.69621 148.218 1.903 148.499 2.17873C148.794 2.45446 149.033 2.8129 149.216 3.25406C149.398 3.68144 149.49 4.21221 149.49 4.84638C149.49 5.49434 149.412 6.04579 149.258 6.50074C149.117 6.9419 148.921 7.32102 148.668 7.63811C148.935 7.78976 149.188 7.96898 149.426 8.17578C149.665 8.38257 149.876 8.63072 150.059 8.92024C150.255 9.20975 150.41 9.54062 150.522 9.91285C150.635 10.2713 150.691 10.678 150.691 11.1329C150.691 11.8912 150.572 12.5323 150.333 13.0561C150.094 13.5662 149.785 13.9936 149.405 14.3383C149.04 14.6691 148.633 14.9242 148.183 15.1034C147.747 15.2688 147.326 15.3929 146.918 15.4756C146.525 15.5583 146.174 15.6066 145.865 15.6204C145.555 15.6204 145.359 15.6204 145.274 15.6204H141.481V1.14476H144.916ZM143.356 13.6972H145.274C145.317 13.6972 145.429 13.6972 145.612 13.6972C145.808 13.6834 146.033 13.6558 146.286 13.6145C146.553 13.5731 146.827 13.5042 147.108 13.4077C147.403 13.3112 147.67 13.1664 147.909 12.9734C148.162 12.7804 148.366 12.5391 148.52 12.2496C148.689 11.9463 148.773 11.5741 148.773 11.1329C148.773 10.6504 148.668 10.2713 148.457 9.99557C148.246 9.70606 147.993 9.49237 147.698 9.35451C147.403 9.20286 147.087 9.10635 146.75 9.06499C146.412 9.02363 146.117 9.00295 145.865 9.00295H143.356V13.6972ZM143.356 3.06795V7.05908H145.274C145.485 7.05908 145.724 7.0384 145.991 6.99705C146.258 6.95569 146.511 6.85918 146.75 6.70753C146.989 6.5421 147.185 6.31462 147.34 6.02511C147.508 5.7356 147.593 5.34269 147.593 4.84638C147.593 4.39143 147.473 4.03988 147.234 3.79173C147.01 3.54357 146.743 3.37125 146.434 3.27474C146.138 3.16445 145.843 3.10241 145.548 3.08863C145.253 3.07484 145.043 3.06795 144.916 3.06795H143.356Z" fill="white"/>
<path d="M160.057 1.14476L165.979 15.6204H163.956C163.871 15.4274 163.773 15.1861 163.661 14.8966C163.562 14.6071 163.457 14.3314 163.345 14.0694C163.218 13.7661 163.092 13.449 162.965 13.1182H156.031C155.905 13.4353 155.778 13.7454 155.652 14.0487C155.525 14.3383 155.413 14.6002 155.314 14.8346C155.188 15.1103 155.076 15.3722 154.977 15.6204H152.996L155.567 9.31315C155.905 8.48597 156.242 7.6519 156.579 6.81093C156.916 5.96997 157.232 5.18415 157.527 4.45347C157.837 3.7228 158.104 3.06795 158.328 2.48892C158.567 1.9099 158.75 1.46184 158.876 1.14476H160.057ZM162.122 11.1743C161.574 9.80945 161.124 8.70655 160.773 7.86558C160.436 7.02462 160.169 6.36977 159.972 5.90103C159.776 5.4323 159.642 5.11521 159.572 4.94978C159.502 4.77056 159.466 4.66716 159.466 4.63959C159.143 5.42541 158.855 6.12161 158.602 6.72821C158.349 7.33481 158.118 7.89316 157.907 8.40325C157.71 8.89956 157.52 9.36829 157.338 9.80945C157.155 10.2506 156.972 10.7056 156.79 11.1743H162.122Z" fill="white"/>
<path d="M166.384 1.14476H175.574V3.06795H171.906V15.6204H170.01V3.06795H166.384V1.14476Z" fill="white"/>
<path d="M177.859 1.14476H187.048V3.06795H183.381V15.6204H181.484V3.06795H177.859V1.14476Z" fill="white"/>
<path d="M196.288 9.5613H191.188V13.6972H198.08V15.6204H189.333V1.14476H198.08V3.06795H191.188V7.61743H196.288V9.5613Z" fill="white"/>
<path d="M207.499 15.6204L203.958 10.3058H202.167V15.6204H200.375V1.14476H203.663C203.832 1.14476 204.077 1.15165 204.401 1.16543C204.724 1.17922 205.075 1.22747 205.454 1.31019C205.848 1.39291 206.241 1.52388 206.635 1.7031C207.028 1.86854 207.386 2.11669 207.71 2.44756C208.047 2.76465 208.314 3.17824 208.511 3.68833C208.721 4.18464 208.827 4.79813 208.827 5.5288C208.827 6.24569 208.742 6.86608 208.574 7.38996C208.405 7.90005 208.18 8.33432 207.899 8.69276C207.632 9.03742 207.33 9.32004 206.993 9.54062C206.656 9.74742 206.312 9.90596 205.96 10.0162L209.733 15.6204H207.499ZM202.167 8.38257H203.979C204.162 8.38257 204.422 8.36189 204.759 8.32053C205.11 8.26539 205.447 8.1482 205.771 7.96898C206.108 7.77597 206.396 7.49335 206.635 7.12112C206.888 6.73511 207.014 6.20433 207.014 5.5288C207.014 4.90842 206.867 4.43279 206.572 4.10192C206.29 3.77105 205.96 3.52979 205.581 3.37814C205.202 3.22649 204.829 3.13688 204.464 3.10931C204.099 3.08173 203.832 3.06795 203.663 3.06795H202.167V8.38257Z" fill="white"/>
<path d="M213.974 1.14476V15.6204H212.035V1.14476H213.974Z" fill="white"/>
<path d="M223.178 9.5613H218.077V13.6972H224.969V15.6204H216.223V1.14476H224.969V3.06795H218.077V7.61743H223.178V9.5613Z" fill="white"/>
</svg>
